<svg width="91" height="43" viewBox="0 0 91 43" fill="none" xmlns="http://www.w3.org/2000/svg">
<path d="M20.12 22.8C19.6133 21.8667 18.88 21.16 17.92 20.68C16.9867 20.1733 15.88 19.92 14.6 19.92C12.3867 19.92 10.6133 20.6533 9.28 22.12C7.94667 23.56 7.28 25.4933 7.28 27.92C7.28 30.5067 7.97333 32.5333 9.36 34C10.7733 35.44 12.7067 36.16 15.16 36.16C16.84 36.16 18.2533 35.7333 19.4 34.88C20.5733 34.0267 21.4267 32.8 21.96 31.2H13.28V26.16H28.16V32.52C27.6533 34.2267 26.7867 35.8133 25.56 37.28C24.36 38.7467 22.8267 39.9333 20.96 40.84C19.0933 41.7467 16.9867 42.2 14.64 42.2C11.8667 42.2 9.38667 41.6 7.2 40.4C5.04 39.1733 3.34667 37.48 2.12 35.32C0.92 33.16 0.32 30.6933 0.32 27.92C0.32 25.1467 0.92 22.68 2.12 20.52C3.34667 18.3333 5.04 16.64 7.2 15.44C9.36 14.2133 11.8267 13.6 14.6 13.6C17.96 13.6 20.7867 14.4133 23.08 16.04C25.4 17.6667 26.9333 19.92 27.68 22.8H20.12ZM60.9088 0.299997V5.88H49.8088V42H42.9688V5.88H31.8088V0.299997H60.9088ZM90.9359 42H84.0959L72.6559 24.68V42H65.8159V13.92H72.6559L84.0959 31.32V13.92H90.9359V42Z" fill="#F27630" fill-opacity="0.82"/>
</svg>
